<svg xmlns="http://www.w3.org/2000/svg" enable-background="new 0 0 24 24" viewBox="0 0 24 24"><linearGradient id="a" x1="-1349.726" x2="-1348.726" y1="442.736" y2="442.736" gradientTransform="scale(29.5057 -29.5057) rotate(-45 -1209.278 -1408.007)" gradientUnits="userSpaceOnUse"><stop offset="0" stop-color="#f44336"/><stop offset=".095" stop-color="#f44336"/><stop offset=".493" stop-color="#673ab7"/><stop offset="1" stop-color="#03a9f4"/></linearGradient><path fill="url(#a)" d="M18.009,0H12v24H6.718l0,0h11.029c0.525,0,1.048-0.034,1.57-0.1c0.823-0.106,1.597-0.35,2.296-0.81c0.84-0.553,1.472-1.287,1.88-2.208c0.186-0.42,0.293-0.87,0.37-1.324c0.113-0.675,0.138-1.358,0.137-2.04c-0.002-3.8,0-7.596-0.003-11.394h-0.003c0-0.738-0.066-1.47-0.24-2.191c-0.317-1.31-1.062-2.31-2.18-3.043C21,0.516,20.37,0.284,19.697,0.163c-0.517-0.093-1.038-0.135-1.564-0.15L18.009,0L18.009,0z"/><linearGradient id="b" x1="-1349.726" x2="-1348.726" y1="442.587" y2="442.587" gradientTransform="scale(29.5057 -29.5057) rotate(-45 -1209.278 -1408.007)" gradientUnits="userSpaceOnUse"><stop offset="0" stop-color="#d43a2f"/><stop offset=".095" stop-color="#d43a2f"/><stop offset=".493" stop-color="#5a329f"/><stop offset="1" stop-color="#0393d4"/></linearGradient><path fill="url(#b)" d="M12,0H5.986C5.834,0.01,5.683,0.017,5.531,0.026c-0.747,0.043-1.49,0.123-2.193,0.401c-1.336,0.53-2.3,1.452-2.865,2.78C0.281,3.655,0.181,4.132,0.11,4.615C0.054,5.007,0.022,5.4,0.01,5.795L0,5.889v12.224c0.01,0.14,0.017,0.283,0.027,0.424c0.05,0.815,0.154,1.624,0.497,2.373c0.65,1.42,1.738,2.353,3.234,2.802c0.42,0.127,0.856,0.187,1.293,0.228C5.606,23.993,6.161,24,6.718,24H12V0L12,0z"/><path fill="#FFF" d="M5.929,16.373c0.357-0.15,0.73-0.232,1.108-0.31c0.287-0.06,0.575-0.116,0.86-0.177c0.383-0.083,0.583-0.323,0.6-0.714v-0.15c0-2.961,0-5.923,0.002-8.883c0-0.123,0.013-0.25,0.042-0.37c0.07-0.285,0.273-0.448,0.546-0.518C9.342,5.185,9.601,5.14,9.861,5.086c0.733-0.15,1.466-0.296,2.2-0.444l2.27-0.461c0.67-0.133,1.34-0.27,2.01-0.403c0.22-0.043,0.443-0.088,0.664-0.106c0.31-0.025,0.523,0.17,0.554,0.482l0.012,0.223c0.002,1.91,0.002,3.822,0,5.732l0.001,0.003v5.712c0,0.417-0.058,0.827-0.244,1.206c-0.289,0.59-0.76,0.962-1.387,1.14c-0.35,0.1-0.706,0.157-1.07,0.173c-0.95,0.045-1.773-0.6-1.943-1.536c-0.142-0.773,0.227-1.625,1.038-2.022c0.323-0.16,0.67-0.25,1.018-0.324c0.378-0.082,0.758-0.153,1.134-0.24c0.274-0.063,0.457-0.23,0.51-0.516l0.02-0.193c0-1.815,0-3.63-0.002-5.443l-0.026-0.185c-0.04-0.15-0.15-0.243-0.304-0.234c-0.16,0.009-0.318,0.034-0.475,0.066c-0.76,0.15-1.52,0.303-2.28,0.456l-3.7,0.748L9.811,8.935c-0.277,0.077-0.377,0.203-0.39,0.49v0.13c-0.002,2.603,0,5.205-0.003,7.806c0,0.42-0.047,0.836-0.215,1.227c-0.278,0.64-0.77,1.04-1.434,1.234c-0.35,0.1-0.71,0.16-1.074,0.172c-0.96,0.036-1.755-0.6-1.92-1.544C4.635,17.637,5.005,16.763,5.929,16.373L5.929,16.373z"/><path fill="#DEDEDE" d="M12,4.655c-0.714,0.144-1.427,0.286-2.139,0.432C9.601,5.14,9.342,5.185,9.087,5.251C8.813,5.321,8.611,5.485,8.54,5.77c-0.029,0.12-0.042,0.247-0.042,0.37c-0.002,2.96-0.002,5.923-0.002,8.883v0.15c-0.017,0.391-0.217,0.631-0.6,0.714c-0.285,0.061-0.573,0.117-0.86,0.177c-0.378,0.078-0.751,0.16-1.108,0.31c-0.924,0.39-1.294,1.263-1.154,2.075c0.161,0.919,0.917,1.546,1.843,1.546c0.026,0,0.051,0,0.077-0.001c0.365-0.012,0.725-0.072,1.074-0.172c0.664-0.194,1.156-0.593,1.434-1.234c0.168-0.391,0.215-0.807,0.215-1.227c0.003-2.601,0.001-5.203,0.003-7.806v-0.13c0.013-0.287,0.114-0.413,0.39-0.49l0.048-0.013L12,8.489V4.655L12,4.655z"/></svg>